<svg width="385" height="130" viewBox="0 0 385 130" fill="none" xmlns="http://www.w3.org/2000/svg">
<mask id="path-1-outside-1_11_2" maskUnits="userSpaceOnUse" x="0" y="0" width="385" height="130" fill="black">
<rect fill="white" width="385" height="130"/>
<path d="M26.125 96H3.0625L40.0625 2.25H63.1875L100.125 96H77.0625L70.1875 77.5625H33L26.125 96ZM40.0625 58.375H63.1875L51.625 27.625L40.0625 58.375ZM136.588 96H114.588V2.25H136.588V96ZM177.425 127.25H156.863V33.5H174.863L175.863 41.8125C178.446 38.8125 181.55 36.4792 185.175 34.8125C188.8 33.1042 192.738 32.25 196.988 32.25C202.571 32.25 207.529 33.6667 211.863 36.5C216.196 39.2917 219.613 43.1458 222.113 48.0625C224.613 52.9375 225.863 58.5 225.863 64.75C225.863 71 224.613 76.5833 222.113 81.5C219.613 86.375 216.196 90.2292 211.863 93.0625C207.529 95.8542 202.571 97.25 196.988 97.25C193.113 97.25 189.508 96.5625 186.175 95.1875C182.883 93.7708 179.967 91.8125 177.425 89.3125V127.25ZM191.175 78.875C193.842 78.875 196.196 78.2708 198.238 77.0625C200.321 75.8542 201.925 74.1875 203.05 72.0625C204.217 69.8958 204.8 67.4583 204.8 64.75C204.8 62 204.217 59.5625 203.05 57.4375C201.883 55.3125 200.279 53.6458 198.238 52.4375C196.196 51.1875 193.842 50.5625 191.175 50.5625C188.675 50.5625 186.404 51.125 184.363 52.25C182.363 53.3333 180.758 54.8542 179.55 56.8125C178.342 58.7292 177.633 60.9583 177.425 63.5V66.1875C177.633 68.6458 178.342 70.8333 179.55 72.75C180.758 74.6667 182.363 76.1667 184.363 77.25C186.404 78.3333 188.675 78.875 191.175 78.875ZM242.637 96V2.25H263.137V40.1875C267.596 34.8958 273.762 32.25 281.637 32.25C289.387 32.25 295.429 34.6667 299.762 39.5C304.096 44.3333 306.262 51.0625 306.262 59.6875V96H285.762V65.25C285.762 60.5833 284.783 56.9792 282.825 54.4375C280.908 51.8542 278.179 50.5625 274.637 50.5625C271.012 50.5625 268.179 51.8542 266.137 54.4375C264.137 57.0208 263.137 60.625 263.137 65.25V96H242.637ZM382.85 96H364.913L363.85 88.875C361.558 91.5417 358.767 93.6042 355.475 95.0625C352.183 96.5208 348.558 97.25 344.6 97.25C340.267 97.25 336.413 96.4167 333.038 94.75C329.663 93.0833 326.996 90.7917 325.038 87.875C323.121 84.9167 322.163 81.5625 322.163 77.8125C322.163 73.8542 323.204 70.375 325.288 67.375C327.413 64.375 330.329 62.0208 334.038 60.3125C337.746 58.6042 341.975 57.75 346.725 57.75C349.433 57.75 352.1 58.0417 354.725 58.625C357.392 59.2083 359.933 60.0208 362.35 61.0625V59.75C362.35 57.5417 361.683 55.625 360.35 54C359.017 52.375 357.204 51.1042 354.913 50.1875C352.621 49.2292 350.017 48.75 347.1 48.75C344.225 48.75 341.433 49.2083 338.725 50.125C336.017 51 333.538 52.2708 331.288 53.9375L325.913 38.625C330.329 36.5 334.725 34.9167 339.1 33.875C343.517 32.7917 347.767 32.25 351.85 32.25C358.142 32.25 363.6 33.4792 368.225 35.9375C372.892 38.3958 376.496 41.875 379.038 46.375C381.579 50.8333 382.85 56.125 382.85 62.25V96ZM349.225 81.9375C351.35 81.9375 353.392 81.4792 355.35 80.5625C357.35 79.6042 358.975 78.3542 360.225 76.8125C361.517 75.2708 362.183 73.625 362.225 71.875V71.625C360.558 70.5417 358.704 69.7292 356.663 69.1875C354.621 68.6042 352.579 68.3125 350.538 68.3125C347.496 68.3125 345.058 68.9375 343.225 70.1875C341.392 71.3958 340.475 73.0208 340.475 75.0625C340.475 76.3542 340.85 77.5417 341.6 78.625C342.35 79.6667 343.392 80.4792 344.725 81.0625C346.058 81.6458 347.558 81.9375 349.225 81.9375Z"/>
</mask>
<path d="M26.125 96V98H27.5138L27.999 96.6988L26.125 96ZM3.0625 96L1.20214 95.2658L0.123039 98H3.0625V96ZM40.0625 2.25V0.25H38.7017L38.2021 1.51578L40.0625 2.25ZM63.1875 2.25L65.0483 1.51685L64.5491 0.25H63.1875V2.25ZM100.125 96V98H103.063L101.986 95.2669L100.125 96ZM77.0625 96L75.1885 96.6988L75.6737 98H77.0625V96ZM70.1875 77.5625L72.0615 76.8637L71.5763 75.5625H70.1875V77.5625ZM33 77.5625V75.5625H31.6112L31.126 76.8637L33 77.5625ZM40.0625 58.375L38.1905 57.6711L37.1738 60.375H40.0625V58.375ZM63.1875 58.375V60.375H66.0762L65.0595 57.6711L63.1875 58.375ZM51.625 27.625L53.497 26.9211L51.625 21.9425L49.753 26.9211L51.625 27.625ZM26.125 96V94H3.0625V96V98H26.125V96ZM3.0625 96L4.92286 96.7342L41.9229 2.98422L40.0625 2.25L38.2021 1.51578L1.20214 95.2658L3.0625 96ZM40.0625 2.25V4.25H63.1875V2.25V0.25H40.0625V2.25ZM63.1875 2.25L61.3267 2.98315L98.2642 96.7331L100.125 96L101.986 95.2669L65.0483 1.51685L63.1875 2.25ZM100.125 96V94H77.0625V96V98H100.125V96ZM77.0625 96L78.9365 95.3012L72.0615 76.8637L70.1875 77.5625L68.3135 78.2613L75.1885 96.6988L77.0625 96ZM70.1875 77.5625V75.5625H33V77.5625V79.5625H70.1875V77.5625ZM33 77.5625L31.126 76.8637L24.251 95.3012L26.125 96L27.999 96.6988L34.874 78.2613L33 77.5625ZM40.0625 58.375V60.375H63.1875V58.375V56.375H40.0625V58.375ZM63.1875 58.375L65.0595 57.6711L53.497 26.9211L51.625 27.625L49.753 28.3289L61.3155 59.0789L63.1875 58.375ZM51.625 27.625L49.753 26.9211L38.1905 57.6711L40.0625 58.375L41.9345 59.0789L53.497 28.3289L51.625 27.625ZM136.588 96V98H138.588V96H136.588ZM114.588 96H112.588V98H114.588V96ZM114.588 2.25V0.25H112.588V2.25H114.588ZM136.588 2.25H138.588V0.25H136.588V2.25ZM136.588 96V94H114.588V96V98H136.588V96ZM114.588 96H116.588V2.25H114.588H112.588V96H114.588ZM114.588 2.25V4.25H136.588V2.25V0.25H114.588V2.25ZM136.588 2.25H134.588V96H136.588H138.588V2.25H136.588ZM177.425 127.25V129.25H179.425V127.25H177.425ZM156.863 127.25H154.863V129.25H156.863V127.25ZM156.863 33.5V31.5H154.863V33.5H156.863ZM174.863 33.5L176.848 33.2611L176.636 31.5H174.863V33.5ZM175.863 41.8125L173.877 42.0514L174.419 46.5544L177.378 43.1175L175.863 41.8125ZM185.175 34.8125L186.01 36.6296L186.019 36.6257L186.028 36.6217L185.175 34.8125ZM211.863 36.5L210.768 38.174L210.779 38.1813L211.863 36.5ZM222.113 48.0625L220.33 48.969L220.333 48.9751L222.113 48.0625ZM222.113 81.5L223.892 82.4126L223.895 82.4065L222.113 81.5ZM211.863 93.0625L212.946 94.7438L212.957 94.7364L211.863 93.0625ZM186.175 95.1875L185.384 97.0246L185.398 97.0306L185.412 97.0364L186.175 95.1875ZM177.425 89.3125L178.827 87.8866L175.425 84.5399V89.3125H177.425ZM198.238 77.0625L197.234 75.3324L197.226 75.3369L197.219 75.3413L198.238 77.0625ZM203.05 72.0625L201.289 71.1143L201.282 71.1267L203.05 72.0625ZM198.238 52.4375L197.193 54.1432L197.206 54.151L197.219 54.1587L198.238 52.4375ZM184.363 52.25L185.315 54.0086L185.321 54.0052L185.328 54.0017L184.363 52.25ZM179.55 56.8125L181.242 57.8791L181.247 57.8709L181.252 57.8627L179.55 56.8125ZM177.425 63.5L175.432 63.3366L175.425 63.4182V63.5H177.425ZM177.425 66.1875H175.425V66.2721L175.432 66.3564L177.425 66.1875ZM184.363 77.25L183.41 79.0086L183.417 79.0127L183.425 79.0167L184.363 77.25ZM177.425 127.25V125.25H156.863V127.25V129.25H177.425V127.25ZM156.863 127.25H158.863V33.5H156.863H154.863V127.25H156.863ZM156.863 33.5V35.5H174.863V33.5V31.5H156.863V33.5ZM174.863 33.5L172.877 33.7389L173.877 42.0514L175.863 41.8125L177.848 41.5736L176.848 33.2611L174.863 33.5ZM175.863 41.8125L177.378 43.1175C179.773 40.3368 182.644 38.1774 186.01 36.6296L185.175 34.8125L184.34 32.9954C180.456 34.781 177.119 37.2882 174.347 40.5075L175.863 41.8125ZM185.175 34.8125L186.028 36.6217C189.37 35.0465 193.014 34.25 196.988 34.25V32.25V30.25C192.461 30.25 188.23 31.1618 184.322 33.0033L185.175 34.8125ZM196.988 32.25V34.25C202.214 34.25 206.786 35.5701 210.768 38.1739L211.863 36.5L212.957 34.8261C208.273 31.7632 202.928 30.25 196.988 30.25V32.25ZM211.863 36.5L210.779 38.1813C214.794 40.7677 217.979 44.3451 220.33 48.969L222.113 48.0625L223.895 47.156C221.246 41.9466 217.598 37.8156 212.946 34.8187L211.863 36.5ZM222.113 48.0625L220.333 48.9751C222.669 53.5302 223.863 58.7724 223.863 64.75H225.863H227.863C227.863 58.2276 226.556 52.3448 223.892 47.1499L222.113 48.0625ZM225.863 64.75H223.863C223.863 70.7272 222.669 75.9931 220.33 80.5935L222.113 81.5L223.895 82.4065C226.556 77.1736 227.863 71.2728 227.863 64.75H225.863ZM222.113 81.5L220.333 80.5874C217.982 85.1721 214.794 88.7564 210.768 91.3886L211.863 93.0625L212.957 94.7364C217.598 91.702 221.243 87.5779 223.892 82.4126L222.113 81.5ZM211.863 93.0625L210.779 91.3812C206.796 93.9475 202.22 95.25 196.988 95.25V97.25V99.25C202.922 99.25 208.262 97.7609 212.946 94.7438L211.863 93.0625ZM196.988 97.25V95.25C193.354 95.25 190.012 94.6066 186.938 93.3386L186.175 95.1875L185.412 97.0364C189.005 98.5184 192.871 99.25 196.988 99.25V97.25ZM186.175 95.1875L186.966 93.3504C183.9 92.0312 181.192 90.2119 178.827 87.8866L177.425 89.3125L176.023 90.7384C178.742 93.4131 181.866 95.5105 185.384 97.0246L186.175 95.1875ZM177.425 89.3125H175.425V127.25H177.425H179.425V89.3125H177.425ZM191.175 78.875V80.875C194.155 80.875 196.869 80.1964 199.256 78.7837L198.238 77.0625L197.219 75.3413C195.523 76.3453 193.529 76.875 191.175 76.875V78.875ZM198.238 77.0625L199.241 78.7926C201.648 77.3966 203.517 75.455 204.818 72.9983L203.05 72.0625L201.282 71.1267C200.333 72.92 198.994 74.3117 197.234 75.3324L198.238 77.0625ZM203.05 72.0625L204.811 73.0107C206.15 70.5241 206.8 67.7553 206.8 64.75H204.8H202.8C202.8 67.1613 202.283 69.2676 201.289 71.1143L203.05 72.0625ZM204.8 64.75H206.8C206.8 61.7094 206.152 58.9327 204.803 56.475L203.05 57.4375L201.297 58.4C202.281 60.1923 202.8 62.2906 202.8 64.75H204.8ZM203.05 57.4375L204.803 56.475C203.468 54.0431 201.613 52.1113 199.256 50.7163L198.238 52.4375L197.219 54.1587C198.945 55.1803 200.299 56.5819 201.297 58.4L203.05 57.4375ZM198.238 52.4375L199.282 50.7318C196.891 49.268 194.167 48.5625 191.175 48.5625V50.5625V52.5625C193.516 52.5625 195.501 53.107 197.193 54.1432L198.238 52.4375ZM191.175 50.5625V48.5625C188.363 48.5625 185.756 49.1987 183.397 50.4983L184.363 52.25L185.328 54.0017C187.052 53.0513 188.987 52.5625 191.175 52.5625V50.5625ZM184.363 52.25L183.41 50.4914C181.099 51.7433 179.238 53.51 177.848 55.7623L179.55 56.8125L181.252 57.8627C182.279 56.1983 183.626 54.9233 185.315 54.0086L184.363 52.25ZM179.55 56.8125L177.858 55.7459C176.458 57.9676 175.663 60.5148 175.432 63.3366L177.425 63.5L179.418 63.6634C179.604 61.4019 180.226 59.4907 181.242 57.8791L179.55 56.8125ZM177.425 63.5H175.425V66.1875H177.425H179.425V63.5H177.425ZM177.425 66.1875L175.432 66.3564C175.665 69.1048 176.464 71.6055 177.858 73.8166L179.55 72.75L181.242 71.6834C180.219 70.0611 179.602 68.1869 179.418 66.0186L177.425 66.1875ZM179.55 72.75L177.858 73.8166C179.25 76.0247 181.109 77.7625 183.41 79.0086L184.363 77.25L185.315 75.4914C183.616 74.5708 182.266 73.3086 181.242 71.6834L179.55 72.75ZM184.363 77.25L183.425 79.0167C185.779 80.2656 188.376 80.875 191.175 80.875V78.875V76.875C188.974 76.875 187.03 76.4011 185.3 75.4833L184.363 77.25ZM242.637 96H240.637V98H242.637V96ZM242.637 2.25V0.25H240.637V2.25H242.637ZM263.137 2.25H265.137V0.25H263.137V2.25ZM263.137 40.1875H261.137V45.6654L264.667 41.4761L263.137 40.1875ZM299.762 39.5L301.252 38.1649L299.762 39.5ZM306.262 96V98H308.262V96H306.262ZM285.762 96H283.762V98H285.762V96ZM282.825 54.4375L281.219 55.6292L281.23 55.6438L281.241 55.6582L282.825 54.4375ZM266.137 54.4375L264.568 53.1974L264.562 53.2052L264.556 53.2132L266.137 54.4375ZM263.137 96V98H265.137V96H263.137ZM242.637 96H244.637V2.25H242.637H240.637V96H242.637ZM242.637 2.25V4.25H263.137V2.25V0.25H242.637V2.25ZM263.137 2.25H261.137V40.1875H263.137H265.137V2.25H263.137ZM263.137 40.1875L264.667 41.4761C268.69 36.7009 274.261 34.25 281.637 34.25V32.25V30.25C273.264 30.25 266.501 33.0908 261.608 38.8989L263.137 40.1875ZM281.637 32.25V34.25C288.939 34.25 294.393 36.5068 298.273 40.8351L299.762 39.5L301.252 38.1649C296.465 32.8265 289.836 30.25 281.637 30.25V32.25ZM299.762 39.5L298.273 40.8351C302.182 45.195 304.262 51.3904 304.262 59.6875H306.262H308.262C308.262 50.7346 306.009 43.4717 301.252 38.1649L299.762 39.5ZM306.262 59.6875H304.262V96H306.262H308.262V59.6875H306.262ZM306.262 96V94H285.762V96V98H306.262V96ZM285.762 96H287.762V65.25H285.762H283.762V96H285.762ZM285.762 65.25H287.762C287.762 60.3354 286.735 56.2358 284.409 53.2168L282.825 54.4375L281.241 55.6582C282.831 57.7226 283.762 60.8313 283.762 65.25H285.762ZM282.825 54.4375L284.431 53.2458C282.095 50.0974 278.738 48.5625 274.637 48.5625V50.5625V52.5625C277.62 52.5625 279.721 53.611 281.219 55.6292L282.825 54.4375ZM274.637 50.5625V48.5625C270.471 48.5625 267.031 50.0814 264.568 53.1974L266.137 54.4375L267.707 55.6776C269.327 53.627 271.554 52.5625 274.637 52.5625V50.5625ZM266.137 54.4375L264.556 53.2132C262.192 56.2666 261.137 60.3615 261.137 65.25H263.137H265.137C265.137 60.8885 266.083 57.7751 267.719 55.6618L266.137 54.4375ZM263.137 65.25H261.137V96H263.137H265.137V65.25H263.137ZM263.137 96V94H242.637V96V98H263.137V96ZM382.85 96V98H384.85V96H382.85ZM364.913 96L362.934 96.295L363.189 98H364.913V96ZM363.85 88.875L365.828 88.58L365.183 84.2551L362.333 87.5715L363.85 88.875ZM325.038 87.875L323.359 88.9625L323.368 88.9762L323.377 88.9899L325.038 87.875ZM325.288 67.375L323.655 66.219L323.65 66.2266L323.645 66.2342L325.288 67.375ZM354.725 58.625L354.291 60.5774L354.298 60.5788L354.725 58.625ZM362.35 61.0625L361.558 62.8991L364.35 64.1024V61.0625H362.35ZM354.913 50.1875L354.141 52.0327L354.155 52.0387L354.17 52.0445L354.913 50.1875ZM338.725 50.125L339.34 52.0281L339.353 52.0239L339.366 52.0194L338.725 50.125ZM331.288 53.9375L329.4 54.5999L330.299 57.1589L332.478 55.5446L331.288 53.9375ZM325.913 38.625L325.045 36.8228L323.433 37.5987L324.025 39.2874L325.913 38.625ZM339.1 33.875L339.563 35.8207L339.576 35.8174L339.1 33.875ZM368.225 35.9375L367.286 37.7035L367.293 37.707L368.225 35.9375ZM379.038 46.375L377.296 47.3586L377.3 47.3655L379.038 46.375ZM355.35 80.5625L356.198 82.3739L356.206 82.37L356.214 82.3661L355.35 80.5625ZM360.225 76.8125L358.692 75.5281L358.682 75.5404L358.671 75.5529L360.225 76.8125ZM362.225 71.875L364.224 71.9226L364.225 71.8988V71.875H362.225ZM362.225 71.625H364.225V70.5396L363.315 69.9481L362.225 71.625ZM356.663 69.1875L356.113 71.1105L356.131 71.1158L356.15 71.1206L356.663 69.1875ZM343.225 70.1875L344.326 71.8574L344.339 71.8488L344.352 71.84L343.225 70.1875ZM341.6 78.625L339.956 79.7634L339.966 79.7786L339.977 79.7936L341.6 78.625ZM382.85 96V94H364.913V96V98H382.85V96ZM364.913 96L366.891 95.705L365.828 88.58L363.85 88.875L361.872 89.17L362.934 96.295L364.913 96ZM363.85 88.875L362.333 87.5715C360.24 90.0073 357.692 91.893 354.665 93.2339L355.475 95.0625L356.285 96.8911C359.842 95.3154 362.877 93.076 365.367 90.1785L363.85 88.875ZM355.475 95.0625L354.665 93.2339C351.653 94.5684 348.307 95.25 344.6 95.25V97.25V99.25C348.809 99.25 352.714 98.4732 356.285 96.8911L355.475 95.0625ZM344.6 97.25V95.25C340.527 95.25 336.984 94.4682 333.923 92.9567L333.038 94.75L332.152 96.5433C335.841 98.3651 340.006 99.25 344.6 99.25V97.25ZM333.038 94.75L333.923 92.9567C330.838 91.4333 328.448 89.3662 326.698 86.7601L325.038 87.875L323.377 88.9899C325.544 92.2171 328.487 94.7334 332.152 96.5433L333.038 94.75ZM325.038 87.875L326.716 86.7875C325.023 84.1741 324.163 81.2024 324.163 77.8125H322.163H320.163C320.163 81.9226 321.219 85.6593 323.359 88.9625L325.038 87.875ZM322.163 77.8125H324.163C324.163 74.2261 325.099 71.1525 326.93 68.5158L325.288 67.375L323.645 66.2342C321.309 69.5975 320.163 73.4823 320.163 77.8125H322.163ZM325.288 67.375L326.92 68.531C328.82 65.8478 331.448 63.7073 334.874 62.129L334.038 60.3125L333.201 58.496C329.21 60.3344 326.005 62.9022 323.655 66.219L325.288 67.375ZM334.038 60.3125L334.874 62.129C338.281 60.5598 342.217 59.75 346.725 59.75V57.75V55.75C341.733 55.75 337.211 56.6486 333.201 58.496L334.038 60.3125ZM346.725 57.75V59.75C349.288 59.75 351.81 60.0259 354.291 60.5774L354.725 58.625L355.159 56.6726C352.39 56.0574 349.578 55.75 346.725 55.75V57.75ZM354.725 58.625L354.298 60.5788C356.844 61.1358 359.263 61.9099 361.558 62.8991L362.35 61.0625L363.142 59.2259C360.603 58.1317 357.939 57.2808 355.152 56.6712L354.725 58.625ZM362.35 61.0625H364.35V59.75H362.35H360.35V61.0625H362.35ZM362.35 59.75H364.35C364.35 57.1043 363.539 54.7331 361.896 52.7314L360.35 54L358.804 55.2686C359.828 56.5169 360.35 57.979 360.35 59.75H362.35ZM360.35 54L361.896 52.7314C360.314 50.8036 358.205 49.3506 355.655 48.3305L354.913 50.1875L354.17 52.0445C356.203 52.8578 357.719 53.9464 358.804 55.2686L360.35 54ZM354.913 50.1875L355.684 48.3423C353.109 47.2656 350.236 46.75 347.1 46.75V48.75V50.75C349.797 50.75 352.132 51.1927 354.141 52.0327L354.913 50.1875ZM347.1 48.75V46.75C344.008 46.75 341 47.2436 338.084 48.2306L338.725 50.125L339.366 52.0194C341.867 51.1731 344.442 50.75 347.1 50.75V48.75ZM338.725 50.125L338.11 48.2219C335.199 49.1625 332.524 50.5323 330.097 52.3304L331.288 53.9375L332.478 55.5446C334.551 54.0094 336.835 52.8375 339.34 52.0281L338.725 50.125ZM331.288 53.9375L333.175 53.2751L327.8 37.9626L325.913 38.625L324.025 39.2874L329.4 54.5999L331.288 53.9375ZM325.913 38.625L326.78 40.4272C331.079 38.3589 335.339 36.8263 339.563 35.8206L339.1 33.875L338.637 31.9294C334.111 33.0071 329.58 34.6411 325.045 36.8228L325.913 38.625ZM339.1 33.875L339.576 35.8174C343.855 34.7681 347.944 34.25 351.85 34.25V32.25V30.25C347.589 30.25 343.179 30.8153 338.624 31.9326L339.1 33.875ZM351.85 32.25V34.25C357.88 34.25 363.003 35.4269 367.286 37.7035L368.225 35.9375L369.164 34.1715C364.197 31.5315 358.404 30.25 351.85 30.25V32.25ZM368.225 35.9375L367.293 37.707C371.627 39.9903 374.947 43.2 377.296 47.3586L379.038 46.375L380.779 45.3914C378.044 40.55 374.156 36.8013 369.157 34.168L368.225 35.9375ZM379.038 46.375L377.3 47.3655C379.639 51.4685 380.85 56.405 380.85 62.25H382.85H384.85C384.85 55.845 383.519 50.1981 380.775 45.3845L379.038 46.375ZM382.85 62.25H380.85V96H382.85H384.85V62.25H382.85ZM349.225 81.9375V83.9375C351.648 83.9375 353.979 83.4125 356.198 82.3739L355.35 80.5625L354.502 78.7511C352.804 79.5458 351.052 79.9375 349.225 79.9375V81.9375ZM355.35 80.5625L356.214 82.3661C358.45 81.2949 360.321 79.8697 361.779 78.0721L360.225 76.8125L358.671 75.5529C357.629 76.8386 356.25 77.9134 354.486 78.7589L355.35 80.5625ZM360.225 76.8125L361.758 78.0969C363.295 76.2621 364.17 74.192 364.224 71.9226L362.225 71.875L360.226 71.8274C360.196 73.058 359.738 74.2795 358.692 75.5281L360.225 76.8125ZM362.225 71.875H364.225V71.625H362.225H360.225V71.875H362.225ZM362.225 71.625L363.315 69.9481C361.46 68.7423 359.409 67.8469 357.175 67.2544L356.663 69.1875L356.15 71.1206C357.999 71.6114 359.657 72.341 361.135 73.3019L362.225 71.625ZM356.663 69.1875L357.212 67.2645C354.999 66.6321 352.772 66.3125 350.538 66.3125V68.3125V70.3125C352.386 70.3125 354.243 70.5762 356.113 71.1105L356.663 69.1875ZM350.538 68.3125V66.3125C347.239 66.3125 344.366 66.9888 342.098 68.535L343.225 70.1875L344.352 71.84C345.75 70.8862 347.753 70.3125 350.538 70.3125V68.3125ZM343.225 70.1875L342.124 68.5176C339.78 70.0627 338.475 72.2902 338.475 75.0625H340.475H342.475C342.475 73.7515 343.003 72.7289 344.326 71.8574L343.225 70.1875ZM340.475 75.0625H338.475C338.475 76.7696 338.979 78.3528 339.956 79.7634L341.6 78.625L343.244 77.4866C342.721 76.7306 342.475 75.9387 342.475 75.0625H340.475ZM341.6 78.625L339.977 79.7936C340.963 81.1634 342.307 82.1875 343.923 82.8948L344.725 81.0625L345.527 79.2302C344.477 78.7709 343.737 78.1699 343.223 77.4564L341.6 78.625ZM344.725 81.0625L343.923 82.8948C345.544 83.6037 347.322 83.9375 349.225 83.9375V81.9375V79.9375C347.794 79.9375 346.573 79.688 345.527 79.2302L344.725 81.0625Z" fill="#909090" mask="url(#path-1-outside-1_11_2)"/>
</svg>
